<?xml version="1.0" encoding="UTF-8" standalone="no"?>
<!DOCTYPE svg PUBLIC "-//W3C//DTD SVG 1.1//EN"
 "http://www.w3.org/Graphics/SVG/1.1/DTD/svg11.dtd">
<!-- Generated by graphviz version 2.40.1 (0)
 -->
<!-- Title: %3 Pages: 1 -->
<svg width="250pt" height="108pt"
 viewBox="0.00 0.00 249.94 107.64" xmlns="http://www.w3.org/2000/svg" xmlns:xlink="http://www.w3.org/1999/xlink">
<g id="graph0" class="graph" transform="scale(1 1) rotate(0) translate(4 103.6396)">
<title>%3</title>
<polygon fill="#ffffff" stroke="transparent" points="-4,4 -4,-103.6396 245.9411,-103.6396 245.9411,4 -4,4"/>
<!-- &#45;1 -->
<g id="node1" class="node">
<title>&#45;1</title>
<ellipse fill="#d3d3d3" stroke="#000000" cx="16.9706" cy="-82.669" rx="16.9412" ry="16.9412"/>
<text text-anchor="middle" x="16.9706" y="-80.469" font-family="Times,serif" font-size="9.00" fill="#000000">&#45;1</text>
</g>
<!-- 0 -->
<g id="node6" class="node">
<title>0</title>
<ellipse fill="#add8e6" stroke="#000000" cx="68.9706" cy="-14.8492" rx="14.7" ry="14.7"/>
<text text-anchor="middle" x="68.9706" y="-12.6492" font-family="Times,serif" font-size="9.00" fill="#000000">0</text>
</g>
<!-- &#45;1&#45;&gt;0 -->
<g id="edge1" class="edge">
<title>&#45;1&#45;&gt;0</title>
<path fill="none" stroke="#00ff00" stroke-width=".7181" d="M27.4935,-68.9447C34.9869,-59.1716 45.1771,-45.8814 53.5816,-34.92"/>
<polygon fill="#00ff00" stroke="#00ff00" stroke-width=".7181" points="56.5462,-36.8056 59.8533,-26.7402 50.9911,-32.5463 56.5462,-36.8056"/>
</g>
<!-- &#45;2 -->
<g id="node2" class="node">
<title>&#45;2</title>
<ellipse fill="#d3d3d3" stroke="#000000" cx="68.9706" cy="-82.669" rx="16.9412" ry="16.9412"/>
<text text-anchor="middle" x="68.9706" y="-80.469" font-family="Times,serif" font-size="9.00" fill="#000000">&#45;2</text>
</g>
<!-- &#45;2&#45;&gt;0 -->
<g id="edge2" class="edge">
<title>&#45;2&#45;&gt;0</title>
<path fill="none" stroke="#ff0000" stroke-width=".4395" d="M68.9706,-65.5552C68.9706,-57.8298 68.9706,-48.5483 68.9706,-40.0497"/>
<polygon fill="#ff0000" stroke="#ff0000" stroke-width=".4395" points="72.4707,-39.8796 68.9706,-29.8796 65.4707,-39.8796 72.4707,-39.8796"/>
</g>
<!-- &#45;3 -->
<g id="node3" class="node">
<title>&#45;3</title>
<ellipse fill="#d3d3d3" stroke="#000000" cx="120.9706" cy="-82.669" rx="16.9412" ry="16.9412"/>
<text text-anchor="middle" x="120.9706" y="-80.469" font-family="Times,serif" font-size="9.00" fill="#000000">&#45;3</text>
</g>
<!-- &#45;3&#45;&gt;0 -->
<g id="edge3" class="edge">
<title>&#45;3&#45;&gt;0</title>
<path fill="none" stroke="#ff0000" stroke-width=".4157" d="M110.4476,-68.9447C102.9542,-59.1716 92.7641,-45.8814 84.3596,-34.92"/>
<polygon fill="#ff0000" stroke="#ff0000" stroke-width=".4157" points="86.95,-32.5463 78.0878,-26.7402 81.395,-36.8056 86.95,-32.5463"/>
</g>
<!-- &#45;4 -->
<g id="node4" class="node">
<title>&#45;4</title>
<ellipse fill="#d3d3d3" stroke="#000000" cx="172.9706" cy="-82.669" rx="16.9412" ry="16.9412"/>
<text text-anchor="middle" x="172.9706" y="-80.469" font-family="Times,serif" font-size="9.00" fill="#000000">&#45;4</text>
</g>
<!-- &#45;5 -->
<g id="node5" class="node">
<title>&#45;5</title>
<ellipse fill="#d3d3d3" stroke="#000000" cx="224.9706" cy="-82.669" rx="16.9412" ry="16.9412"/>
<text text-anchor="middle" x="224.9706" y="-80.469" font-family="Times,serif" font-size="9.00" fill="#000000">&#45;5</text>
</g>
</g>
</svg>
