<?xml version="1.0" encoding="UTF-8" standalone="no"?>
<!DOCTYPE svg PUBLIC "-//W3C//DTD SVG 1.1//EN"
 "http://www.w3.org/Graphics/SVG/1.1/DTD/svg11.dtd">
<!-- Generated by graphviz version 2.40.1 (0)
 -->
<!-- Title: %3 Pages: 1 -->
<svg width="250pt" height="108pt"
 viewBox="0.00 0.00 249.94 107.64" xmlns="http://www.w3.org/2000/svg" xmlns:xlink="http://www.w3.org/1999/xlink">
<g id="graph0" class="graph" transform="scale(1 1) rotate(0) translate(4 103.6396)">
<title>%3</title>
<polygon fill="#ffffff" stroke="transparent" points="-4,4 -4,-103.6396 245.9411,-103.6396 245.9411,4 -4,4"/>
<!-- &#45;1 -->
<g id="node1" class="node">
<title>&#45;1</title>
<ellipse fill="#d3d3d3" stroke="#000000" cx="16.9706" cy="-82.669" rx="16.9412" ry="16.9412"/>
<text text-anchor="middle" x="16.9706" y="-80.469" font-family="Times,serif" font-size="9.00" fill="#000000">&#45;1</text>
</g>
<!-- 0 -->
<g id="node6" class="node">
<title>0</title>
<ellipse fill="#add8e6" stroke="#000000" cx="94.9706" cy="-14.8492" rx="14.7" ry="14.7"/>
<text text-anchor="middle" x="94.9706" y="-12.6492" font-family="Times,serif" font-size="9.00" fill="#000000">0</text>
</g>
<!-- &#45;1&#45;&gt;0 -->
<g id="edge1" class="edge">
<title>&#45;1&#45;&gt;0</title>
<path fill="none" stroke="#00ff00" stroke-width=".4609" d="M29.8507,-71.47C42.2935,-60.6512 61.3012,-44.1243 75.5745,-31.7139"/>
<polygon fill="#00ff00" stroke="#00ff00" stroke-width=".4609" points="78.096,-34.1595 83.3458,-24.9568 73.5029,-28.877 78.096,-34.1595"/>
</g>
<!-- &#45;2 -->
<g id="node2" class="node">
<title>&#45;2</title>
<ellipse fill="#d3d3d3" stroke="#000000" cx="68.9706" cy="-82.669" rx="16.9412" ry="16.9412"/>
<text text-anchor="middle" x="68.9706" y="-80.469" font-family="Times,serif" font-size="9.00" fill="#000000">&#45;2</text>
</g>
<!-- &#45;2&#45;&gt;0 -->
<g id="edge2" class="edge">
<title>&#45;2&#45;&gt;0</title>
<path fill="none" stroke="#ff0000" stroke-width=".5537" d="M75.1322,-66.5967C78.3523,-58.1971 82.3551,-47.7562 85.92,-38.4573"/>
<polygon fill="#ff0000" stroke="#ff0000" stroke-width=".5537" points="89.247,-39.5562 89.5587,-28.9659 82.7109,-37.0504 89.247,-39.5562"/>
</g>
<!-- &#45;3 -->
<g id="node3" class="node">
<title>&#45;3</title>
<ellipse fill="#d3d3d3" stroke="#000000" cx="120.9706" cy="-82.669" rx="16.9412" ry="16.9412"/>
<text text-anchor="middle" x="120.9706" y="-80.469" font-family="Times,serif" font-size="9.00" fill="#000000">&#45;3</text>
</g>
<!-- &#45;3&#45;&gt;0 -->
<g id="edge3" class="edge">
<title>&#45;3&#45;&gt;0</title>
<path fill="none" stroke="#00ff00" stroke-width=".1951" d="M114.8089,-66.5967C111.5888,-58.1971 107.5861,-47.7562 104.0212,-38.4573"/>
<polygon fill="#00ff00" stroke="#00ff00" stroke-width=".1951" points="107.2302,-37.0504 100.3825,-28.9659 100.6941,-39.5562 107.2302,-37.0504"/>
</g>
<!-- &#45;4 -->
<g id="node4" class="node">
<title>&#45;4</title>
<ellipse fill="#d3d3d3" stroke="#000000" cx="224.9706" cy="-82.669" rx="16.9412" ry="16.9412"/>
<text text-anchor="middle" x="224.9706" y="-80.469" font-family="Times,serif" font-size="9.00" fill="#000000">&#45;4</text>
</g>
<!-- &#45;5 -->
<g id="node5" class="node">
<title>&#45;5</title>
<ellipse fill="#d3d3d3" stroke="#000000" cx="172.9706" cy="-82.669" rx="16.9412" ry="16.9412"/>
<text text-anchor="middle" x="172.9706" y="-80.469" font-family="Times,serif" font-size="9.00" fill="#000000">&#45;5</text>
</g>
<!-- &#45;5&#45;&gt;0 -->
<g id="edge4" class="edge">
<title>&#45;5&#45;&gt;0</title>
<path fill="none" stroke="#ff0000" stroke-width=".2442" stroke-dasharray="1,5" d="M160.0904,-71.47C147.6476,-60.6512 128.6399,-44.1243 114.3667,-31.7139"/>
<polygon fill="#ff0000" stroke="#ff0000" stroke-width=".2442" points="116.4382,-28.877 106.5953,-24.9568 111.8451,-34.1595 116.4382,-28.877"/>
</g>
</g>
</svg>
